<svg width="10" height="13" viewBox="0 0 10 13" fill="none" xmlns="http://www.w3.org/2000/svg">
<path d="M2.71359 7.76214C3.13202 7.76214 3.5333 7.59592 3.82917 7.30005C4.12504 7.00418 4.29126 6.60289 4.29126 6.18447C4.29126 5.31359 3.97573 4.92233 3.66019 4.29126C2.98369 2.93888 3.51883 1.73291 4.92233 0.504854C5.23786 2.08252 6.18447 3.59709 7.4466 4.6068C8.70874 5.6165 9.33981 6.81553 9.33981 8.07767C9.33981 8.65778 9.22554 9.23221 9.00355 9.76816C8.78155 10.3041 8.45616 10.7911 8.04596 11.2013C7.63576 11.6115 7.14878 11.9369 6.61283 12.1589C6.07687 12.3809 5.50244 12.4951 4.92233 12.4951C4.34222 12.4951 3.76779 12.3809 3.23184 12.1589C2.69588 11.9369 2.2089 11.6115 1.7987 11.2013C1.3885 10.7911 1.06311 10.3041 0.841115 9.76816C0.619116 9.23221 0.504854 8.65778 0.504854 8.07767C0.504854 7.35005 0.778107 6.63 1.13592 6.18447C1.13592 6.60289 1.30214 7.00418 1.59801 7.30005C1.89388 7.59592 2.29517 7.76214 2.71359 7.76214Z" stroke="white" stroke-linecap="round" stroke-linejoin="round"/>
</svg>
