<svg width="18" height="17" viewBox="0 0 18 17" fill="none" xmlns="http://www.w3.org/2000/svg">
<path d="M12.2871 5.55444C13.6263 5.55444 14.9107 6.08644 15.8576 7.0334C16.8046 7.98037 17.3366 9.26473 17.3366 10.6039V16.495H13.9703V10.6039C13.9703 10.1575 13.7929 9.72941 13.4773 9.41376C13.1616 9.0981 12.7335 8.92077 12.2871 8.92077C11.8407 8.92077 11.4126 9.0981 11.0969 9.41376C10.7813 9.72941 10.6039 10.1575 10.6039 10.6039V16.495H7.23761V10.6039C7.23761 9.26473 7.7696 7.98037 8.71657 7.0334C9.66353 6.08644 10.9479 5.55444 12.2871 5.55444Z" stroke="white" stroke-linecap="round" stroke-linejoin="round"/>
<path d="M3.87128 6.39602H0.504949V16.495H3.87128V6.39602Z" stroke="white" stroke-linecap="round" stroke-linejoin="round"/>
<path d="M2.18811 3.87128C3.1177 3.87128 3.87128 3.1177 3.87128 2.18811C3.87128 1.25853 3.1177 0.504949 2.18811 0.504949C1.25853 0.504949 0.504949 1.25853 0.504949 2.18811C0.504949 3.1177 1.25853 3.87128 2.18811 3.87128Z" stroke="white" stroke-linecap="round" stroke-linejoin="round"/>
</svg>
